<?xml version="1.0" standalone="no"?>
<!DOCTYPE svg PUBLIC "-//W3C//DTD SVG 20010904//EN"
 "http://www.w3.org/TR/2001/REC-SVG-20010904/DTD/svg10.dtd">
<svg version="1.0" xmlns="http://www.w3.org/2000/svg"
 width="1918.000000pt" height="1078.000000pt" viewBox="0 0 1918.000000 1078.000000"
 preserveAspectRatio="xMidYMid meet">

<g transform="translate(0.000000,1078.000000) scale(0.100000,-0.100000)"
fill="#000000" stroke="none">
<path d="M56 10729 c-52 -41 -19 -129 48 -129 62 0 89 90 40 129 -15 12 -34
21 -44 21 -10 0 -29 -9 -44 -21z m87 -12 c3 -7 -12 -22 -36 -35 l-41 -23 24
26 c19 20 20 25 7 25 -9 0 -19 5 -22 10 -4 6 8 10 28 10 19 0 37 -6 40 -13z
m12 -46 c-1 -11 -7 -27 -14 -35 -13 -15 -15 -14 -29 5 -14 20 -14 23 3 35 26
19 42 17 40 -5z"/>
<path d="M18490 10732 c30 -6 36 -12 42 -42 l6 -35 -1 40 c-2 39 -3 40 -42 42
l-40 1 35 -6z"/>
<path d="M18919 10718 l24 -28 -24 -27 -24 -28 28 24 27 24 28 -24 27 -24 -24
28 -24 27 24 28 24 27 -27 -24 -28 -24 -27 24 -28 24 24 -27z"/>
<path d="M241 10673 c1 -27 4 -38 6 -26 2 12 12 24 21 26 15 4 15 5 0 6 -10 0
-18 7 -18 15 0 8 8 17 18 19 13 4 11 5 -5 6 -21 1 -23 -3 -22 -46z"/>
<path d="M303 10675 c0 -27 2 -38 4 -22 2 15 2 37 0 50 -2 12 -4 0 -4 -28z"/>
<path d="M513 10675 c0 -27 2 -38 4 -22 2 15 2 37 0 50 -2 12 -4 0 -4 -28z"/>
<path d="M546 10673 c-10 -30 -12 -43 -4 -35 16 16 45 15 51 0 4 -9 6 -8 6 2
0 8 -4 22 -9 30 -6 10 -10 11 -10 3 0 -7 -6 -13 -14 -13 -9 0 -12 7 -9 20 3
11 9 17 14 14 5 -3 9 -1 9 5 0 5 -4 12 -9 15 -5 3 -16 -15 -25 -41z"/>
<path d="M660 10701 c0 -14 -5 -18 -19 -14 -13 3 -21 -2 -26 -16 -9 -28 1 -41
30 -39 22 2 25 7 25 45 0 24 -2 43 -5 43 -3 0 -5 -9 -5 -19z m-4 -32 c10 -17
-13 -36 -27 -22 -12 12 -4 33 11 33 5 0 12 -5 16 -11z"/>
<path d="M18440 10680 l0 -40 40 0 40 0 0 40 0 40 -40 0 -40 0 0 -40z m70 0
c0 -27 -3 -30 -30 -30 -27 0 -30 3 -30 30 0 27 3 30 30 30 27 0 30 -3 30 -30z"/>
<path d="M818 10697 c-7 -19 6 -60 20 -63 7 -1 8 0 2 3 -12 6 -13 40 -1 45 5
2 3 8 -4 15 -10 9 -14 9 -17 0z"/>
<path d="M330 10675 c-11 -13 -11 -19 3 -32 21 -21 49 -9 45 19 -4 28 -30 35
-48 13z m40 -15 c0 -21 -24 -28 -35 -10 -8 14 3 30 21 30 8 0 14 -9 14 -20z"/>
<path d="M400 10675 c-11 -13 -11 -19 3 -32 21 -21 49 -9 45 19 -4 28 -30 35
-48 13z m40 -15 c0 -21 -24 -28 -35 -10 -8 14 3 30 21 30 8 0 14 -9 14 -20z"/>
<path d="M475 10680 c-3 -6 1 -7 9 -4 18 7 21 14 7 14 -6 0 -13 -4 -16 -10z"/>
<path d="M704 10682 c19 -8 19 -9 -3 -15 -28 -7 -23 -31 8 -35 19 -3 22 0 19
25 -2 19 -9 29 -23 30 -19 3 -19 3 -1 -5z m16 -32 c0 -5 -7 -10 -15 -10 -8 0
-15 5 -15 10 0 6 7 10 15 10 8 0 15 -4 15 -10z"/>
<path d="M751 10643 c1 -26 3 -41 6 -32 2 10 13 19 24 22 29 8 22 51 -8 55
-21 3 -23 0 -22 -45z m39 17 c0 -11 -7 -20 -15 -20 -8 0 -15 9 -15 20 0 11 7
20 15 20 8 0 15 -9 15 -20z"/>
<path d="M18013 10683 c15 -2 39 -2 55 0 15 2 2 4 -28 4 -30 0 -43 -2 -27 -4z"/>
<path d="M470 10640 c0 -6 7 -10 15 -10 8 0 15 2 15 4 0 2 -7 6 -15 10 -8 3
-15 1 -15 -4z"/>
<path d="M0 5280 l0 -5280 9590 0 9590 0 0 5280 0 5280 -9590 0 -9590 0 0
-5280z m133 5203 c-13 -2 -23 -9 -23 -14 0 -5 10 -10 23 -10 l22 -2 -22 -4
c-13 -2 -24 -13 -26 -26 -2 -12 -5 -3 -6 21 -1 40 0 42 27 41 23 -2 24 -2 5
-6z m64 -55 c-2 -13 -4 -3 -4 22 0 25 2 35 4 23 2 -13 2 -33 0 -45z m259 30
l7 -33 14 34 c8 18 16 31 19 28 3 -3 -2 -22 -11 -43 -9 -21 -19 -34 -24 -28
-14 15 -31 74 -21 74 5 0 12 -15 16 -32z m424 2 c10 0 21 8 23 18 3 9 5 -3 4
-28 0 -25 -2 -35 -4 -22 -3 13 -12 22 -23 22 -11 0 -20 -9 -23 -22 -2 -13 -4
-3 -4 22 -1 25 1 37 4 28 2 -10 13 -18 23 -18z m117 -32 c-2 -13 -4 -3 -4 22
0 25 2 35 4 23 2 -13 2 -33 0 -45z m-830 -5 c-3 -10 -5 -2 -5 17 0 19 2 27 5
18 2 -10 2 -26 0 -35z m97 32 c4 -11 -1 -15 -17 -15 -21 -1 -22 -1 -3 -15 18
-13 18 -15 3 -15 -10 0 -20 7 -23 15 -8 21 2 45 20 45 7 0 16 -7 20 -15z m253
-32 c-3 -10 -5 -2 -5 17 0 19 2 27 5 18 2 -10 2 -26 0 -35z m67 32 c4 -11 -1
-15 -17 -15 -21 -1 -22 -1 -3 -15 18 -13 18 -15 3 -15 -10 0 -20 7 -23 15 -8
21 2 45 20 45 7 0 16 -7 20 -15z m26 -7 c1 -23 1 -23 15 2 l14 25 10 -25 c6
-17 10 -19 10 -8 1 9 6 20 11 23 7 4 8 -3 4 -22 -9 -38 -13 -41 -30 -19 -12
17 -14 18 -14 3 0 -26 -19 -20 -30 9 -12 32 -12 34 0 34 6 0 10 -10 10 -22z
m364 7 c4 -11 -1 -15 -17 -15 -21 -1 -22 -1 -3 -15 18 -13 18 -15 3 -15 -10 0
-20 7 -23 15 -8 21 2 45 20 45 7 0 16 -7 20 -15z m96 -10 c0 -15 -7 -28 -17
-32 -10 -4 -21 -11 -25 -17 -4 -6 -8 8 -8 32 0 38 2 42 25 42 20 0 25 -5 25
-25z m17940 -1475 l0 -1260 -115 0 -115 0 0 -68 0 -67 -140 3 -140 4 0 -71 0
-71 -140 0 -140 0 0 -72 0 -71 -210 6 -210 6 0 -69 0 -70 -140 0 -140 0 0 -71
0 -71 -210 4 -210 3 0 -67 0 -68 -134 0 c-152 0 -146 4 -146 -92 l0 -48 -70 0
-70 0 0 -70 0 -70 -70 0 -70 0 0 -71 0 -71 -70 4 -70 3 0 -137 0 -138 -70 0
-70 0 0 -70 0 -70 -70 0 -70 0 0 -70 0 -70 -70 0 -70 0 0 -70 0 -70 -70 0 -70
0 0 -68 0 -68 -140 4 -140 5 0 -72 0 -71 -140 0 -140 0 0 -70 0 -70 -140 0
-140 0 0 -67 0 -68 -140 3 -140 3 0 -70 0 -71 -140 0 -140 0 0 -140 0 -140
-70 0 -70 0 0 -70 0 -70 -70 6 -70 7 0 -72 0 -71 -70 0 -70 0 0 -140 0 -140
-70 0 -70 0 0 -70 0 -70 -70 0 -70 0 0 -140 0 -140 -70 0 -70 0 0 -65 0 -65
-70 0 -70 0 0 -70 0 -70 -70 0 -70 0 0 -72 c0 -40 -3 -103 -7 -140 l-6 -68
-62 0 c-72 0 -75 -3 -75 -86 l0 -54 -70 0 -70 0 0 -205 0 -205 -70 0 -70 0 0
-140 0 -140 -70 0 -70 0 0 -165 0 -165 -6315 0 -6315 0 0 4040 0 4040 9445 0
9445 0 0 -1260z m0 -4055 l0 -2765 -3115 0 -3115 0 0 150 0 150 70 0 70 0 0
140 0 140 70 0 70 0 0 205 0 205 70 0 70 0 0 70 0 70 70 0 70 0 0 109 c0 60 3
123 6 140 6 31 7 31 69 31 l63 0 7 70 7 70 63 0 c71 0 75 4 75 94 l0 49 61 -7
c47 -6 64 -4 70 6 5 7 9 70 9 141 l0 127 70 0 70 0 0 70 0 70 70 0 70 0 0 140
0 140 70 0 70 0 0 71 0 71 70 -4 70 -3 0 68 0 67 70 0 70 0 0 140 0 140 140 0
140 0 0 70 0 70 140 0 140 0 0 68 0 67 140 -3 140 -3 0 70 0 71 140 0 140 0 0
70 0 70 140 0 140 0 0 65 0 65 70 0 70 0 0 70 0 70 70 0 70 0 0 70 0 70 70 0
70 0 0 70 0 70 70 0 70 0 0 141 0 141 70 -7 70 -7 0 71 0 71 70 0 70 0 0 70 0
70 70 0 70 0 0 70 0 70 140 0 140 0 0 70 0 69 210 -6 210 -6 0 71 0 72 140 0
140 0 0 71 0 71 210 -7 210 -8 0 72 0 71 140 0 140 0 0 70 0 70 140 0 140 0 0
65 0 65 100 0 100 0 0 -2765z m155 1274 c0 -65 -2 -74 -18 -71 -19 3 -107 60
-107 69 0 10 32 43 42 43 6 0 21 9 36 20 39 31 47 21 47 -61z m-12154 -4302
c29 -8 22 -51 -8 -55 -21 -3 -23 0 -22 45 1 26 3 41 6 32 2 -10 13 -19 24 -22z
m36 -34 c-2 -16 -4 -5 -4 22 0 28 2 40 4 28 2 -13 2 -35 0 -50z m678 57 c3 -6
-1 -7 -9 -4 -9 3 -16 1 -16 -5 0 -6 7 -11 15 -11 11 0 15 -10 14 -32 -2 -31
-2 -31 -6 -5 -2 15 -9 27 -14 27 -5 0 -10 -12 -10 -27 l-1 -28 -7 30 c-11 44
15 86 34 55z m-7405 -9 c0 -5 -9 -7 -20 -4 -26 7 -26 -14 1 -22 26 -9 21 -39
-9 -43 -12 -2 -22 1 -22 6 0 6 9 8 20 5 12 -3 20 0 20 7 0 6 -9 14 -20 17 -20
5 -26 23 -13 36 10 10 43 8 43 -2z m86 -15 c34 -1 43 -23 12 -28 l-23 -5 25
-10 c23 -10 22 -11 -17 -11 -37 0 -41 3 -45 28 -5 35 1 57 12 40 4 -7 20 -13
36 -14z m397 17 c-13 -2 -23 -9 -23 -14 0 -5 10 -10 23 -10 l22 -2 -22 -4
c-13 -2 -23 -11 -23 -18 0 -7 10 -16 23 -18 19 -4 18 -4 -5 -6 -26 -1 -28 2
-28 39 0 37 2 40 28 39 23 -2 24 -2 5 -6z m231 -37 c1 -19 -2 -32 -5 -28 -12
12 -15 81 -3 69 3 -3 7 -22 8 -41z m434 21 c2 -12 -4 -20 -17 -24 -11 -3 -22
-12 -24 -22 -3 -9 -5 3 -6 27 -1 39 1 43 21 40 13 -2 24 -11 26 -21z m276 -21
c1 -19 -2 -32 -5 -28 -12 12 -15 81 -3 69 3 -3 7 -22 8 -41z m539 7 c-8 -52
-13 -54 -13 -5 0 23 4 42 9 42 6 0 7 -17 4 -37z m56 -5 l-2 -43 -6 35 c-7 33
-5 50 5 50 2 0 3 -19 3 -42z m739 35 c-24 -6 -23 -20 3 -28 26 -9 21 -39 -9
-43 -12 -2 -22 1 -22 6 0 6 9 8 20 5 27 -7 26 11 -2 29 -24 16 -17 39 10 37
15 -1 15 -2 0 -6z m56 -37 c1 -19 -2 -32 -5 -28 -12 12 -15 81 -3 69 3 -3 7
-22 8 -41z m140 0 c1 -19 -2 -32 -5 -28 -12 12 -15 81 -3 69 3 -3 7 -22 8 -41z
m614 37 c-24 -6 -23 -20 3 -28 26 -9 21 -39 -9 -43 -12 -2 -22 1 -22 6 0 6 9
8 20 5 27 -7 26 11 -2 29 -24 16 -17 39 10 37 15 -1 15 -2 0 -6z m810 -5 c17
-17 15 -43 -4 -59 -31 -26 -70 25 -44 56 15 18 32 19 48 3z m106 -32 c1 -19
-2 -32 -5 -28 -12 12 -15 81 -3 69 3 -3 7 -22 8 -41z m160 0 c1 -19 -2 -32 -5
-28 -12 12 -15 81 -3 69 3 -3 7 -22 8 -41z m376 35 c-18 -5 -25 -14 -25 -31 0
-17 7 -26 25 -31 21 -6 22 -7 5 -8 -12 -1 -26 4 -33 11 -26 26 -6 69 33 67 17
-1 16 -2 -5 -8z m1050 0 c-18 -5 -25 -14 -25 -31 0 -17 7 -26 25 -31 21 -6 22
-7 5 -8 -12 -1 -26 4 -33 11 -26 26 -6 69 33 67 17 -1 16 -2 -5 -8z m514 -35
c1 -19 -2 -32 -5 -28 -12 12 -15 81 -3 69 3 -3 7 -22 8 -41z m581 4 c0 -29 -4
-36 -22 -38 -21 -3 -23 1 -23 38 0 37 2 41 23 38 18 -2 22 -9 22 -38z m279 -4
c1 -19 -2 -32 -5 -28 -12 12 -15 81 -3 69 3 -3 7 -22 8 -41z m-7427 -23 c-3
-10 -5 -2 -5 17 0 19 2 27 5 18 2 -10 2 -26 0 -35z m601 30 c2 -8 -5 -13 -17
-13 -28 0 -27 -17 2 -23 l22 -4 -23 -2 c-25 -1 -38 20 -28 45 7 18 37 15 44
-3z m19 -30 c-3 -10 -5 -2 -5 17 0 19 2 27 5 18 2 -10 2 -26 0 -35z m40 11 c1
-25 0 -26 -4 -4 -3 14 -10 29 -17 33 -7 6 -6 7 4 4 8 -2 16 -16 17 -33z m78
27 c-18 -7 -18 -8 -1 -18 21 -12 13 -33 -12 -32 -14 0 -13 2 3 8 18 7 18 8 1
18 -21 12 -13 33 12 32 14 0 13 -2 -3 -8z m412 -38 c-3 -10 -5 -2 -5 17 0 19
2 27 5 18 2 -10 2 -26 0 -35z m78 17 c0 -29 -32 -41 -41 -16 -9 24 4 48 23 44
12 -2 18 -12 18 -28z m33 -7 c-2 -22 -9 -38 -18 -40 -12 -4 -13 -3 -1 5 8 6
12 21 9 41 -2 17 -1 31 4 31 5 0 8 -17 6 -37z m60 20 c2 -8 -5 -13 -17 -13
-28 0 -27 -17 2 -23 l22 -4 -23 -2 c-25 -1 -38 20 -28 45 7 18 37 15 44 -3z
m40 10 c-10 -2 -18 -13 -18 -23 0 -10 8 -21 18 -23 16 -4 16 -5 -1 -6 -10 0
-20 6 -23 14 -9 23 3 45 23 44 17 -1 17 -2 1 -6z m69 -40 c-3 -10 -5 -2 -5 17
0 19 2 27 5 18 2 -10 2 -26 0 -35z m58 17 c0 -29 -32 -41 -41 -16 -9 24 4 48
23 44 12 -2 18 -12 18 -28z m22 -17 c-3 -10 -5 -2 -5 17 0 19 2 27 5 18 2 -10
2 -26 0 -35z m40 11 c1 -25 0 -26 -4 -4 -3 14 -10 29 -17 33 -7 6 -6 7 4 4 8
-2 16 -16 17 -33z m38 27 c-18 -7 -18 -8 -1 -18 21 -12 13 -33 -12 -32 -14 0
-13 2 3 8 18 7 18 8 1 18 -21 12 -13 33 12 32 14 0 13 -2 -3 -8z m473 -8 c2
-8 -5 -13 -17 -13 -28 0 -27 -17 2 -23 l22 -4 -23 -2 c-25 -1 -38 20 -28 45 7
18 37 15 44 -3z m60 -16 c3 -25 0 -28 -19 -25 -31 4 -36 28 -8 35 22 6 22 7 3
15 -18 8 -18 8 1 5 14 -1 21 -11 23 -30z m37 24 c-18 -7 -18 -8 -1 -18 21 -12
13 -33 -12 -32 -14 0 -13 2 3 8 18 7 18 8 1 18 -21 12 -13 33 12 32 14 0 13
-2 -3 -8z m50 -41 c8 0 16 12 18 28 4 25 4 24 6 -6 1 -29 -2 -33 -21 -30 -17
2 -23 10 -24 28 -1 22 0 22 3 3 2 -13 10 -23 18 -23z m42 3 c-3 -10 -5 -2 -5
17 0 19 2 27 5 18 2 -10 2 -26 0 -35z m81 30 c2 -8 -5 -13 -17 -13 -28 0 -27
-17 2 -23 l22 -4 -23 -2 c-25 -1 -38 20 -28 45 7 18 37 15 44 -3z m37 8 c-18
-7 -18 -8 -1 -18 21 -12 13 -33 -12 -32 -14 0 -13 2 3 8 18 7 18 8 1 18 -21
12 -13 33 12 32 14 0 13 -2 -3 -8z m452 -38 c-3 -10 -5 -2 -5 17 0 19 2 27 5
18 2 -10 2 -26 0 -35z m81 14 c3 -25 0 -28 -19 -25 -31 4 -36 28 -8 35 22 6
22 7 3 15 -18 8 -18 8 1 5 14 -1 21 -11 23 -30z m100 16 c2 -8 -5 -13 -17 -13
-28 0 -27 -17 2 -23 l22 -4 -23 -2 c-25 -1 -38 20 -28 45 7 18 37 15 44 -3z
m60 -20 c-2 -29 -8 -38 -23 -40 -19 -3 -19 -3 -1 5 19 8 19 9 -2 14 -13 4 -22
14 -22 25 0 25 8 33 32 33 16 0 19 -6 16 -37z m19 -10 c-3 -10 -5 -2 -5 17 0
19 2 27 5 18 2 -10 2 -26 0 -35z m61 30 c2 -8 -5 -13 -17 -13 -28 0 -27 -17 2
-23 l22 -4 -23 -2 c-25 -1 -38 20 -28 45 7 18 37 15 44 -3z m37 8 c-18 -7 -18
-8 -1 -18 21 -12 13 -33 -12 -32 -14 0 -13 2 3 8 18 7 18 8 1 18 -21 12 -13
33 12 32 14 0 13 -2 -3 -8z m433 2 c-10 -2 -18 -13 -18 -23 0 -10 8 -21 18
-23 16 -4 16 -5 -1 -6 -20 -1 -32 21 -23 44 3 8 13 14 23 14 17 -1 17 -2 1 -6z
m70 -10 c2 -8 -5 -13 -17 -13 -28 0 -27 -17 2 -23 l22 -4 -23 -2 c-25 -1 -38
20 -28 45 7 18 37 15 44 -3z m19 -30 c-3 -10 -5 -2 -5 17 0 19 2 27 5 18 2
-10 2 -26 0 -35z m40 11 c1 -25 0 -26 -4 -4 -3 14 -10 29 -17 33 -7 6 -6 7 4
4 8 -2 16 -16 17 -33z m61 3 c3 -25 0 -28 -19 -25 -31 4 -36 28 -8 35 22 6 22
7 3 15 -18 8 -18 8 1 5 14 -1 21 -11 23 -30z m19 -14 c-3 -10 -5 -2 -5 17 0
19 2 27 5 18 2 -10 2 -26 0 -35z m40 0 c-3 -10 -5 -2 -5 17 0 19 2 27 5 18 2
-10 2 -26 0 -35z m58 17 c0 -29 -32 -41 -41 -16 -9 24 4 48 23 44 12 -2 18
-12 18 -28z m40 21 c-18 -7 -18 -8 -1 -18 21 -12 13 -33 -12 -32 -14 0 -13 2
3 8 18 7 18 8 1 18 -21 12 -13 33 12 32 14 0 13 -2 -3 -8z m450 -41 c8 0 16
12 18 28 4 25 4 24 6 -6 1 -29 -2 -33 -21 -30 -17 2 -23 10 -24 28 -1 22 0 22
3 3 2 -13 10 -23 18 -23z m123 22 c2 -14 -3 -24 -15 -29 -10 -4 -21 -11 -25
-17 -4 -6 -8 8 -8 32 0 39 2 43 23 40 14 -2 23 -11 25 -26z m37 -22 c8 0 16
12 18 28 4 25 4 24 6 -6 1 -29 -2 -33 -21 -30 -17 2 -23 10 -24 28 -1 22 0 22
3 3 2 -13 10 -23 18 -23z m510 20 c0 -29 -32 -41 -41 -16 -9 24 4 48 23 44 12
-2 18 -12 18 -28z m81 -3 c1 -25 1 -25 -3 -2 -6 34 -23 32 -24 -2 l-2 -28 -4
28 c-2 15 -8 27 -13 27 -5 0 -11 -12 -13 -27 -4 -26 -4 -26 -6 4 -1 31 1 33
32 30 27 -2 32 -6 33 -30z m62 5 c2 -14 -3 -24 -15 -29 -10 -4 -21 -11 -25
-17 -4 -6 -8 8 -8 32 0 39 2 43 23 40 14 -2 23 -11 25 -26z m60 -5 c3 -25 0
-28 -19 -25 -31 4 -36 28 -8 35 22 6 22 7 3 15 -18 8 -18 8 1 5 14 -1 21 -11
23 -30z m19 -14 c-3 -10 -5 -2 -5 17 0 19 2 27 5 18 2 -10 2 -26 0 -35z m81
30 c2 -8 -5 -13 -17 -13 -28 0 -27 -17 2 -23 l22 -4 -23 -2 c-25 -1 -38 20
-28 45 7 18 37 15 44 -3z m178 -16 c1 -25 1 -25 -3 -2 -6 34 -23 32 -24 -2
l-2 -28 -4 28 c-2 15 -8 27 -13 27 -5 0 -11 -12 -13 -27 -4 -26 -4 -26 -6 4
-1 31 1 33 32 30 27 -2 32 -6 33 -30z m62 0 c3 -25 0 -28 -19 -25 -31 4 -36
28 -8 35 22 6 22 7 3 15 -18 8 -18 8 1 5 14 -1 21 -11 23 -30z m60 5 c2 -14
-3 -24 -15 -29 -10 -4 -21 -11 -25 -17 -4 -6 -8 8 -8 32 0 39 2 43 23 40 14
-2 23 -11 25 -26z m447 -2 c0 -29 -32 -41 -41 -16 -9 24 4 48 23 44 12 -2 18
-12 18 -28z m81 -3 c1 -25 1 -25 -3 -2 -6 34 -23 32 -24 -2 l-2 -28 -4 28 c-2
15 -8 27 -13 27 -5 0 -11 -12 -13 -27 -4 -26 -4 -26 -6 4 -1 31 1 33 32 30 27
-2 32 -6 33 -30z m62 5 c2 -14 -3 -24 -15 -29 -10 -4 -21 -11 -25 -17 -4 -6
-8 8 -8 32 0 39 2 43 23 40 14 -2 23 -11 25 -26z m60 -5 c3 -25 0 -28 -19 -25
-31 4 -36 28 -8 35 22 6 22 7 3 15 -18 8 -18 8 1 5 14 -1 21 -11 23 -30z m19
-14 c-3 -10 -5 -2 -5 17 0 19 2 27 5 18 2 -10 2 -26 0 -35z m81 30 c2 -8 -5
-13 -17 -13 -28 0 -27 -17 2 -23 l22 -4 -23 -2 c-25 -1 -38 20 -28 45 7 18 37
15 44 -3z m200 -16 c3 -25 0 -28 -19 -25 -31 4 -36 28 -8 35 22 6 22 7 3 15
-18 8 -18 8 1 5 14 -1 21 -11 23 -30z m140 16 c2 -8 -5 -13 -17 -13 -28 0 -27
-17 2 -23 l22 -4 -23 -2 c-25 -1 -38 20 -28 45 7 18 37 15 44 -3z m440 0 c2
-8 -5 -13 -17 -13 -28 0 -27 -17 2 -23 l22 -4 -23 -2 c-25 -1 -38 20 -28 45 7
18 37 15 44 -3z m19 -30 c-3 -10 -5 -2 -5 17 0 19 2 27 5 18 2 -10 2 -26 0
-35z m40 11 c1 -25 0 -26 -4 -4 -3 14 -10 29 -17 33 -7 6 -6 7 4 4 8 -2 16
-16 17 -33z m61 19 c2 -8 -5 -13 -17 -13 -28 0 -27 -17 2 -23 l22 -4 -23 -2
c-25 -1 -38 20 -28 45 7 18 37 15 44 -3z m137 8 c-18 -7 -18 -8 -1 -18 21 -12
13 -33 -12 -32 -14 0 -13 2 3 8 18 7 18 8 1 18 -21 12 -13 33 12 32 14 0 13
-2 -3 -8z m-5492 -18 c-3 -7 -6 -13 -8 -13 -2 0 -5 6 -8 13 -3 8 1 14 8 14 7
0 11 -6 8 -14z m-1452 -8 c5 4 6 -1 2 -10 -5 -13 -7 -14 -14 -3 -5 7 -8 18 -8
23 0 6 3 4 6 -3 2 -6 9 -10 14 -7z m1448 -336 c13 -39 14 -59 1 -39 -8 12 -13
13 -30 2 -11 -7 -20 -8 -20 -4 0 19 22 72 30 72 4 0 13 -14 19 -31z m397 11
c9 0 14 -11 14 -30 0 -42 -36 -43 -42 -2 -5 32 2 66 10 45 2 -7 10 -13 18 -13z
m227 -17 c14 -36 15 -37 16 -10 1 18 6 27 18 27 13 0 14 -3 5 -12 -7 -7 -12
-20 -12 -30 0 -20 -26 -25 -33 -5 -3 9 -9 9 -26 -1 -24 -14 -26 -8 -10 37 14
40 23 39 42 -6z m1546 6 c13 -39 14 -59 1 -39 -8 12 -13 13 -30 2 -11 -7 -20
-8 -20 -4 0 19 22 72 30 72 4 0 13 -14 19 -31z m397 11 c9 0 14 -11 14 -30 0
-42 -36 -43 -42 -2 -5 32 2 66 10 45 2 -7 10 -13 18 -13z m227 -17 c14 -36 15
-37 16 -10 1 18 6 27 18 27 13 0 14 -3 5 -12 -7 -7 -12 -20 -12 -30 0 -20 -26
-25 -33 -5 -3 9 -9 9 -26 -1 -24 -14 -26 -8 -10 37 14 40 23 39 42 -6z m305
30 c-13 -3 -19 -16 -20 -41 l-1 -37 -4 37 c-3 24 -10 38 -21 41 -9 3 1 5 23 5
22 0 32 -2 23 -5z m-3030 -50 c-3 -32 -7 -38 -28 -40 l-25 -2 25 8 c25 7 25 7
3 13 -14 4 -23 14 -23 25 0 25 8 33 32 33 16 0 19 -6 16 -37z m60 0 c-3 -32
-7 -38 -28 -40 l-25 -2 25 8 c25 7 25 7 3 13 -14 4 -23 14 -23 25 0 25 8 33
32 33 16 0 19 -6 16 -37z m34 25 c-5 -7 -12 -22 -15 -33 -3 -13 -5 -9 -6 13
-1 23 3 32 15 32 12 0 14 -3 6 -12z m65 -5 c2 -6 -6 -13 -19 -15 l-23 -5 25
-11 c25 -11 25 -11 2 -11 -25 -1 -38 20 -28 45 7 17 37 16 43 -3z m61 -20 c-3
-32 -7 -38 -28 -40 l-25 -2 25 8 c25 7 25 7 3 13 -14 4 -23 14 -23 25 0 25 8
33 32 33 16 0 19 -6 16 -37z m60 5 c3 -24 0 -28 -22 -28 -33 0 -35 29 -3 38
22 6 22 6 -3 13 l-25 8 25 -2 c19 -2 26 -8 28 -29z m117 2 c0 -16 -6 -26 -18
-28 -19 -4 -32 20 -23 44 9 25 41 13 41 -16z m64 -2 c-2 -32 -2 -32 -6 -5 -5
33 -25 31 -34 -4 -6 -21 -7 -21 -8 9 -1 28 2 32 24 32 22 0 25 -4 24 -32z
m198 15 c2 -6 -6 -13 -19 -15 l-23 -5 25 -11 c25 -11 25 -11 2 -11 -25 -1 -38
20 -28 45 7 17 37 16 43 -3z m61 -15 c3 -24 0 -28 -22 -28 -33 0 -35 29 -3 38
22 6 22 6 -3 13 l-25 8 25 -2 c19 -2 26 -8 28 -29z m52 22 c0 -5 -8 -7 -17 -4
-17 5 -17 5 0 -9 23 -19 22 -37 -3 -37 -11 0 -20 4 -20 10 0 5 8 7 18 4 16 -5
16 -5 0 9 -24 19 -23 37 2 37 11 0 20 -4 20 -10z m1398 -27 c-3 -32 -7 -38
-28 -40 l-25 -2 25 8 c25 7 25 7 3 13 -14 4 -23 14 -23 25 0 25 8 33 32 33 16
0 19 -6 16 -37z m60 0 c-3 -32 -7 -38 -28 -40 l-25 -2 25 8 c25 7 25 7 3 13
-14 4 -23 14 -23 25 0 25 8 33 32 33 16 0 19 -6 16 -37z m34 25 c-5 -7 -12
-22 -15 -33 -3 -13 -5 -9 -6 13 -1 23 3 32 15 32 12 0 14 -3 6 -12z m65 -5 c2
-6 -6 -13 -19 -15 l-23 -5 25 -11 c25 -11 25 -11 2 -11 -25 -1 -38 20 -28 45
7 17 37 16 43 -3z m61 -20 c-3 -32 -7 -38 -28 -40 l-25 -2 25 8 c25 7 25 7 3
13 -14 4 -23 14 -23 25 0 25 8 33 32 33 16 0 19 -6 16 -37z m60 5 c3 -24 0
-28 -22 -28 -33 0 -35 29 -3 38 22 6 22 6 -3 13 l-25 8 25 -2 c19 -2 26 -8 28
-29z m117 2 c0 -16 -6 -26 -18 -28 -19 -4 -32 20 -23 44 9 25 41 13 41 -16z
m64 -2 c-2 -32 -2 -32 -6 -5 -5 33 -25 31 -34 -4 -6 -21 -7 -21 -8 9 -1 28 2
32 24 32 22 0 25 -4 24 -32z m198 15 c2 -6 -6 -13 -19 -15 l-23 -5 25 -11 c25
-11 25 -11 2 -11 -25 -1 -38 20 -28 45 7 17 37 16 43 -3z m61 -15 c3 -24 0
-28 -22 -28 -33 0 -35 29 -3 38 22 6 22 6 -3 13 l-25 8 25 -2 c19 -2 26 -8 28
-29z m52 22 c0 -5 -8 -7 -17 -4 -17 5 -17 5 0 -9 23 -19 22 -37 -3 -37 -11 0
-20 4 -20 10 0 5 8 7 18 4 16 -5 16 -5 0 9 -24 19 -23 37 2 37 11 0 20 -4 20
-10z m120 -7 c1 -17 1 -17 14 0 15 19 76 24 76 6 0 -8 5 -8 15 1 16 13 45 7
45 -9 0 -5 -10 -11 -22 -14 -23 -4 -23 -4 2 -15 24 -10 24 -11 3 -11 -12 -1
-25 3 -28 9 -6 10 -43 -6 -57 -25 -4 -5 -8 8 -9 30 l-1 40 -16 -37 c-16 -35
-38 -56 -26 -25 3 8 0 26 -5 40 -7 17 -7 27 -1 27 6 0 10 -8 10 -17z m-4270
-473 l0 -470 -470 0 -470 0 0 470 0 470 470 0 470 0 0 -470z m2720 -240 l0
-590 -1180 0 -1180 0 0 590 0 590 1180 0 1180 0 0 -590z m597 453 c-2 -16 -4
-5 -4 22 0 28 2 40 4 28 2 -13 2 -35 0 -50z m80 0 c-2 -16 -4 -5 -4 22 0 28 2
40 4 28 2 -13 2 -35 0 -50z m123 38 c0 -10 -7 -25 -16 -32 -15 -12 -14 -14 7
-20 21 -6 19 -7 -10 -8 l-34 -1 21 23 c29 30 29 51 1 42 -15 -5 -19 -4 -15 4
12 19 46 13 46 -8z m1154 10 c3 -5 -2 -19 -12 -31 l-18 -22 -17 25 c-9 13 -13
27 -10 31 10 9 51 7 57 -3z m-1597 -27 c5 -15 7 -15 15 0 12 22 48 21 48 -1 1
-17 1 -17 11 0 5 9 19 17 30 17 17 0 20 -6 17 -37 -3 -32 -7 -38 -28 -40 -23
-2 -24 -2 -3 5 l22 7 -23 11 c-21 10 -25 9 -29 -7 -3 -12 -14 -19 -29 -18
l-23 1 22 6 22 7 -24 12 c-14 6 -25 7 -25 2 0 -5 -11 -9 -25 -9 -29 0 -35 27
-8 37 15 6 15 7 -3 14 -17 7 -17 8 4 8 12 1 25 -6 29 -15z m155 4 c-5 -7 -12
-22 -15 -33 -3 -13 -5 -9 -6 13 -1 23 3 32 15 32 12 0 14 -3 6 -12z m119 -16
c0 -12 3 -9 10 7 5 13 12 22 14 19 3 -3 1 -18 -5 -33 -11 -30 -23 -26 -35 14
-5 16 -4 21 4 17 6 -4 11 -15 12 -24z m-53 -49 c-10 -2 -26 -2 -35 0 -10 3 -2
5 17 5 19 0 27 -2 18 -5z m160 0 c-10 -2 -26 -2 -35 0 -10 3 -2 5 17 5 19 0
27 -2 18 -5z m-368 -283 l0 -60 -60 0 -60 0 0 60 0 60 60 0 60 0 0 -60z m161
7 c14 -4 19 -13 18 -34 l-2 -28 -4 28 c-2 15 -10 27 -18 27 -8 0 -16 -12 -18
-27 -2 -16 -4 -5 -4 22 -1 28 1 43 4 34 2 -10 13 -19 24 -22z m389 -13 c0 -41
-2 -45 -22 -42 -31 4 -38 47 -9 55 12 3 21 12 21 19 0 8 2 14 5 14 3 0 5 -21
5 -46z m77 -21 c-2 -16 -4 -5 -4 22 0 28 2 40 4 28 2 -13 2 -35 0 -50z m-507
48 c0 -5 -9 -7 -20 -4 -26 7 -26 -14 1 -22 26 -9 21 -39 -9 -43 -12 -2 -22 1
-22 6 0 6 9 8 20 5 12 -3 20 0 20 7 0 6 -9 14 -20 17 -20 5 -26 23 -13 36 10
10 43 8 43 -2z m267 -13 l10 -23 7 23 c12 36 26 25 25 -20 -1 -39 -2 -40 -8
-13 -6 28 -7 29 -18 10 l-12 -20 -8 20 c-7 18 -8 17 -14 -10 -6 -27 -7 -26 -8
13 -1 46 10 55 26 20z m333 -14 c7 -19 9 -38 6 -41 -3 -4 -6 -1 -6 5 0 7 -9
12 -20 12 -11 0 -20 -5 -20 -12 0 -6 -3 -9 -6 -5 -8 8 15 77 26 77 5 0 14 -16
20 -36z m-485 -14 c0 -29 -32 -41 -41 -16 -9 24 4 48 23 44 12 -2 18 -12 18
-28z m38 10 l8 25 15 -28 c9 -16 13 -32 9 -35 -3 -3 -9 5 -12 18 l-6 24 -9
-24 c-7 -20 -11 -22 -18 -10 -5 8 -9 24 -9 35 1 16 2 15 8 -5 l7 -25 7 25z
m44 -2 c-3 -8 -6 -5 -6 6 -1 11 2 17 5 13 3 -3 4 -12 1 -19z m168 -8 c0 -16
-6 -26 -18 -28 -19 -4 -32 20 -23 44 9 25 41 13 41 -16z m123 13 c2 -8 -5 -13
-17 -13 -28 0 -27 -17 2 -23 l22 -4 -23 -2 c-25 -1 -38 20 -28 45 7 18 37 15
44 -3z m156 9 c-7 -4 -14 -18 -17 -32 -4 -21 -4 -20 -6 8 -1 24 3 32 17 32 11
0 13 -3 6 -8z m64 -9 c2 -8 -5 -13 -17 -13 -28 0 -27 -17 2 -23 l22 -4 -23 -2
c-25 -1 -38 20 -28 45 7 18 37 15 44 -3z m60 -15 c3 -24 0 -28 -22 -28 -33 0
-35 29 -3 38 22 6 22 6 -3 13 l-25 8 25 -2 c19 -2 26 -8 28 -29z m-888 -218
l0 -60 -60 0 -60 0 0 60 0 60 60 0 60 0 0 -60z m161 7 c14 -4 19 -13 18 -34
l-2 -28 -4 28 c-2 15 -10 27 -18 27 -8 0 -16 -12 -18 -27 -2 -16 -4 -5 -4 22
-1 28 1 43 4 34 2 -10 13 -19 24 -22z m-41 14 c0 -5 -9 -7 -20 -4 -26 7 -26
-14 1 -22 26 -9 21 -39 -9 -43 -12 -2 -22 1 -22 6 0 6 9 8 20 5 12 -3 20 0 20
7 0 6 -9 14 -20 17 -20 5 -26 23 -13 36 10 10 43 8 43 -2z m290 -27 c7 -19 9
-38 6 -41 -3 -4 -6 -1 -6 5 0 7 -9 12 -20 12 -11 0 -20 -5 -20 -12 0 -6 -3 -9
-6 -5 -8 8 15 77 26 77 5 0 14 -16 20 -36z m396 16 c9 0 14 -11 14 -30 0 -42
-36 -43 -42 -2 -5 32 2 66 10 45 2 -7 10 -13 18 -13z m224 -16 c7 -19 9 -38 6
-41 -3 -4 -6 -1 -6 5 0 7 -9 12 -20 12 -11 0 -20 -5 -20 -12 0 -6 -3 -9 -6 -5
-8 8 15 77 26 77 5 0 14 -16 20 -36z m-795 -14 c0 -29 -32 -41 -41 -16 -9 24
4 48 23 44 12 -2 18 -12 18 -28z m38 10 l8 25 15 -28 c9 -16 13 -32 9 -35 -3
-3 -9 5 -12 18 l-6 24 -9 -24 c-7 -20 -11 -22 -18 -10 -5 8 -9 24 -9 35 1 16
2 15 8 -5 l7 -25 7 25z m44 -2 c-3 -8 -6 -5 -6 6 -1 11 2 17 5 13 3 -3 4 -12
1 -19z m161 -15 c-3 -32 -7 -38 -28 -40 l-25 -2 25 8 c25 7 25 7 3 13 -14 4
-23 14 -23 25 0 25 8 33 32 33 16 0 19 -6 16 -37z m60 0 c-3 -32 -7 -38 -28
-40 l-25 -2 25 8 c25 7 25 7 3 13 -14 4 -23 14 -23 25 0 25 8 33 32 33 16 0
19 -6 16 -37z m36 29 c-7 -4 -14 -18 -17 -32 -4 -21 -4 -20 -6 8 -1 24 3 32
17 32 11 0 13 -3 6 -8z m64 -9 c2 -8 -5 -13 -17 -13 -28 0 -27 -17 2 -23 l22
-4 -23 -2 c-25 -1 -38 20 -28 45 7 18 37 15 44 -3z m60 -20 c-3 -32 -7 -38
-28 -40 l-25 -2 25 8 c25 7 25 7 3 13 -14 4 -23 14 -23 25 0 25 8 33 32 33 16
0 19 -6 16 -37z m60 5 c3 -24 0 -28 -22 -28 -33 0 -35 29 -3 38 22 6 22 6 -3
13 l-25 8 25 -2 c19 -2 26 -8 28 -29z m117 2 c0 -29 -32 -41 -41 -16 -9 24 4
48 23 44 12 -2 18 -12 18 -28z m61 -3 c1 -25 1 -25 -3 -2 -6 34 -31 32 -36 -2
-4 -26 -4 -25 -6 5 -1 29 2 33 22 30 16 -2 22 -10 23 -31z m138 25 c-7 -4 -14
-18 -17 -32 -4 -21 -4 -20 -6 8 -1 24 3 32 17 32 11 0 13 -3 6 -8z m64 -9 c2
-8 -5 -13 -17 -13 -28 0 -27 -17 2 -23 l22 -4 -23 -2 c-25 -1 -38 20 -28 45 7
18 37 15 44 -3z m60 -15 c3 -24 0 -28 -22 -28 -33 0 -35 29 -3 38 22 6 22 6
-3 13 l-25 8 25 -2 c19 -2 26 -8 28 -29z m52 22 c0 -5 -8 -7 -17 -4 -17 5 -17
5 0 -9 23 -19 22 -37 -3 -37 -11 0 -20 4 -20 10 0 5 8 7 18 4 16 -5 16 -5 0 9
-24 19 -23 37 2 37 11 0 20 -4 20 -10z m-1240 -230 l0 -70 -70 0 -70 0 0 70 0
70 70 0 70 0 0 -70z m127 -27 c-2 -16 -4 -5 -4 22 0 28 2 40 4 28 2 -13 2 -35
0 -50z m-34 50 c-13 -2 -23 -9 -23 -14 0 -5 10 -10 23 -10 l22 -2 -22 -4 c-13
-2 -24 -13 -26 -26 -2 -12 -5 -3 -6 21 -1 40 0 42 27 41 23 -2 24 -2 5 -6z
m194 -17 c23 -1 28 -5 28 -26 0 -22 -5 -25 -36 -27 -33 -2 -37 1 -41 26 -5 36
1 58 12 41 4 -7 21 -13 37 -14z m-127 -24 c1 -12 5 -10 15 8 19 33 19 19 1
-25 -14 -32 -32 -52 -20 -22 3 8 0 26 -6 41 -6 17 -6 25 0 21 6 -3 10 -14 10
-23z m248 -4 c3 -24 0 -28 -22 -28 -33 0 -35 29 -3 38 22 6 22 6 -3 13 l-25 8
25 -2 c19 -2 26 -8 28 -29z m36 24 c-7 -4 -14 -18 -17 -32 -4 -21 -4 -20 -6 8
-1 24 3 32 17 32 11 0 13 -3 6 -8z m64 -9 c2 -8 -5 -13 -17 -13 -28 0 -27 -17
2 -23 l22 -4 -23 -2 c-25 -1 -38 20 -28 45 7 18 37 15 44 -3z m60 -15 c3 -24
0 -28 -22 -28 -33 0 -35 29 -3 38 22 6 22 6 -3 13 l-25 8 25 -2 c19 -2 26 -8
28 -29z m-4311 -125 c-2 -16 -4 -5 -4 22 0 28 2 40 4 28 2 -13 2 -35 0 -50z
m-34 50 c-13 -2 -23 -9 -23 -14 0 -5 10 -10 23 -10 l22 -2 -22 -4 c-13 -2 -24
-13 -26 -26 -2 -12 -5 -3 -6 21 -1 40 0 42 27 41 23 -2 24 -2 5 -6z m194 -17
c23 -1 28 -5 28 -26 0 -22 -5 -25 -36 -27 -33 -2 -37 1 -41 26 -5 36 1 58 12
41 4 -7 21 -13 37 -14z m123 15 c0 -5 -9 -7 -20 -4 -26 7 -26 -14 1 -22 26 -9
21 -39 -9 -43 -12 -2 -22 1 -22 6 0 6 9 8 20 5 12 -3 20 0 20 7 0 6 -9 14 -20
17 -20 5 -26 23 -13 36 10 10 43 8 43 -2z m86 -15 c34 -1 43 -23 12 -28 l-23
-5 25 -10 c23 -10 22 -11 -17 -11 -37 0 -41 3 -45 28 -5 35 1 57 12 40 4 -7
20 -13 36 -14z m-336 -13 c0 -15 2 -14 15 3 17 23 20 5 3 -31 l-12 -26 -13 32
c-16 38 -16 39 -3 39 6 0 10 -8 10 -17z m267 -30 c-3 -10 -5 -2 -5 17 0 19 2
27 5 18 2 -10 2 -26 0 -35z"/>
<path d="M1035 10450 c-8 -13 4 -32 16 -25 12 8 12 35 0 35 -6 0 -13 -4 -16
-10z"/>
<path d="M350 10020 c0 -13 -7 -20 -20 -20 -11 0 -20 -7 -20 -15 0 -8 9 -15
20 -15 13 0 20 -7 20 -20 0 -11 7 -20 15 -20 8 0 15 9 15 20 0 13 7 20 20 20
11 0 20 7 20 15 0 8 -9 15 -20 15 -13 0 -20 7 -20 20 0 11 -7 20 -15 20 -8 0
-15 -9 -15 -20z"/>
<path d="M310 9690 c0 -5 25 -10 55 -10 30 0 55 5 55 10 0 6 -25 10 -55 10
-30 0 -55 -4 -55 -10z"/>
<path d="M347 9445 l-17 -35 35 0 36 0 -17 33 c-9 17 -17 33 -18 34 -2 2 -10
-13 -19 -32z"/>
<path d="M8161 7974 c0 -11 3 -14 6 -6 3 7 2 16 -1 19 -3 4 -6 -2 -5 -13z"/>
<path d="M8692 7960 c0 -19 2 -27 5 -17 2 9 2 25 0 35 -3 9 -5 1 -5 -18z"/>
<path d="M8321 7964 c0 -11 3 -14 6 -6 3 7 2 16 -1 19 -3 4 -6 -2 -5 -13z"/>
<path d="M8869 7060 c-124 -15 -251 -30 -282 -34 -63 -6 -215 -24 -262 -31
-16 -2 -57 -7 -90 -10 -33 -4 -98 -13 -144 -21 -46 -8 -96 -14 -111 -14 -15 0
-30 -3 -33 -7 -4 -3 40 -52 97 -109 80 -79 125 -114 197 -155 52 -29 105 -60
119 -69 14 -10 63 -33 110 -53 80 -34 95 -36 255 -46 94 -6 200 -14 236 -17
l65 -7 56 154 56 154 4 148 3 147 -25 -1 c-14 -1 -127 -14 -251 -29z m264 -37
c-3 -32 -7 -60 -9 -62 -4 -5 -527 -81 -531 -78 -1 1 -3 32 -5 67 l-3 65 255
31 c140 18 265 32 277 33 20 1 21 -2 16 -56z m-562 -78 c3 -33 4 -62 2 -64 -2
-3 -74 -15 -160 -27 -169 -24 -173 -24 -173 27 0 15 -3 40 -6 57 -7 35 -5 36
101 48 33 3 85 10 115 14 30 4 69 7 85 6 29 -1 30 -3 36 -61z m-346 -41 c7
-71 1 -83 -40 -84 -11 0 -36 -3 -55 -6 -32 -5 -41 0 -100 51 -36 31 -66 60
-68 64 -2 6 166 34 239 40 13 1 18 -13 24 -65z m905 -34 c0 -59 -8 -90 -54
-215 -30 -80 -56 -148 -59 -151 -3 -3 -43 -2 -88 3 l-84 8 -9 42 c-10 45 -23
53 -88 53 -38 0 -38 0 -38 43 0 23 -7 82 -15 132 -8 49 -13 90 -12 92 4 4 389
61 420 62 27 1 27 1 27 -69z m-464 -12 c4 -6 3 -8 -4 -5 -22 14 -42 -5 -42
-39 0 -38 21 -54 45 -34 13 10 15 8 15 -13 0 -14 3 -34 6 -44 6 -15 4 -16 -7
-5 -7 6 -21 12 -31 12 -15 0 -18 -8 -18 -45 0 -41 2 -45 25 -45 13 0 29 8 34
18 8 13 9 7 5 -25 l-7 -43 60 0 c60 0 61 0 67 -32 3 -17 5 -33 3 -34 -2 -2
-64 1 -137 6 -123 8 -142 12 -212 44 -43 20 -78 37 -78 39 0 2 13 28 29 57 25
46 28 60 24 111 l-6 58 39 6 c22 3 48 8 60 10 18 4 20 1 16 -20 -3 -20 0 -25
17 -25 11 0 21 -4 21 -10 0 -5 -10 -10 -22 -10 -16 0 -19 -3 -11 -11 16 -16
43 -4 43 20 0 11 -9 22 -22 26 l-23 7 25 8 c14 4 21 8 17 9 -5 1 -5 6 -2 11 9
14 62 13 71 -2z m-241 -73 c6 -50 4 -60 -25 -110 l-32 -55 -66 37 c-131 72
-187 109 -190 124 -2 12 25 19 135 36 76 11 145 21 154 22 13 1 18 -12 24 -54z
m235 30 c0 -16 -6 -25 -15 -25 -9 0 -15 9 -15 25 0 16 6 25 15 25 9 0 15 -9
15 -25z m10 -115 c0 -5 -7 -10 -15 -10 -8 0 -15 5 -15 10 0 6 7 10 15 10 8 0
15 -4 15 -10z m0 -30 c0 -5 -7 -10 -15 -10 -8 0 -15 5 -15 10 0 6 7 10 15 10
8 0 15 -4 15 -10z"/>
<path d="M220 2650 l0 -110 350 0 350 0 0 110 c0 67 -4 110 -10 110 -6 0 -10
-40 -10 -100 l0 -100 -330 0 -330 0 0 100 c0 60 -4 100 -10 100 -6 0 -10 -43
-10 -110z"/>
<path d="M435 2671 c-3 -6 0 -8 9 -5 9 4 16 -2 19 -18 5 -23 5 -23 4 1 -2 26
-21 39 -32 22z"/>
<path d="M16398 2293 c7 -3 16 -2 19 1 4 3 -2 6 -13 5 -11 0 -14 -3 -6 -6z"/>
<path d="M16967 2293 c-3 -5 8 -8 23 -8 15 0 26 3 23 8 -2 4 -13 7 -23 7 -10
0 -21 -3 -23 -7z"/>
<path d="M17100 2296 c0 -2 9 -6 20 -9 11 -3 18 -1 14 4 -5 9 -34 13 -34 5z"/>
<path d="M17375 2290 c-9 -14 10 -36 35 -43 28 -7 25 2 -5 13 -14 5 -25 14
-25 20 0 13 37 13 43 0 3 -6 4 -5 3 2 -3 17 -42 23 -51 8z"/>
<path d="M17450 2262 c0 -22 3 -43 8 -45 8 -6 7 71 -2 80 -3 4 -6 -12 -6 -35z"/>
<path d="M17690 2255 c0 -27 2 -46 4 -44 8 8 10 78 3 85 -4 4 -7 -14 -7 -41z"/>
<path d="M17758 2293 c-2 -5 -1 -26 3 -48 l6 -40 2 48 c1 44 -3 57 -11 40z"/>
<path d="M17983 2255 c0 -27 2 -38 4 -22 2 15 2 37 0 50 -2 12 -4 0 -4 -28z"/>
<path d="M18523 2255 c0 -27 2 -38 4 -22 2 15 2 37 0 50 -2 12 -4 0 -4 -28z"/>
<path d="M18479 2284 c-3 -20 3 -59 9 -66 4 -4 7 9 6 28 -1 31 -12 60 -15 38z"/>
<path d="M16613 2274 c23 -7 22 -20 -4 -27 -22 -6 -22 -29 -1 -33 7 -1 8 0 2
3 -5 2 -10 9 -10 14 0 14 28 11 34 -3 3 -7 4 0 3 17 -1 22 -7 30 -22 32 -16 1
-16 1 -2 -3z"/>
<path d="M16663 2235 c0 -27 2 -38 4 -22 2 15 2 37 0 50 -2 12 -4 0 -4 -28z"/>
<path d="M16806 2272 c-2 -4 4 -8 14 -8 10 0 16 4 14 8 -3 4 -9 8 -14 8 -5 0
-11 -4 -14 -8z"/>
<path d="M17173 2235 c0 -27 2 -38 4 -22 2 15 2 37 0 50 -2 12 -4 0 -4 -28z"/>
<path d="M17250 2276 c0 -2 7 -7 16 -10 8 -3 12 -2 9 4 -6 10 -25 14 -25 6z"/>
<path d="M17327 2273 c6 -4 13 -22 16 -38 4 -27 5 -27 3 4 0 21 -7 36 -16 38
-10 3 -11 2 -3 -4z"/>
<path d="M17540 2276 c0 -2 7 -7 16 -10 8 -3 12 -2 9 4 -6 10 -25 14 -25 6z"/>
<path d="M17597 2273 c-16 -15 -6 -33 18 -33 14 0 25 4 25 9 0 5 -9 7 -20 4
-11 -3 -20 -1 -20 5 0 6 8 13 18 15 14 4 14 5 1 6 -9 0 -19 -2 -22 -6z"/>
<path d="M17796 2271 c-4 -5 3 -7 14 -4 23 6 26 13 6 13 -8 0 -17 -4 -20 -9z"/>
<path d="M17866 2272 c-2 -4 4 -8 14 -8 10 0 16 4 14 8 -3 4 -9 8 -14 8 -5 0
-11 -4 -14 -8z"/>
<path d="M18013 2245 c0 -22 2 -30 4 -17 2 12 2 30 0 40 -3 9 -5 -1 -4 -23z"/>
<path d="M18037 2273 c6 -4 13 -22 16 -38 4 -27 5 -27 3 4 0 21 -7 36 -16 38
-10 3 -11 2 -3 -4z"/>
<path d="M18075 2270 c3 -5 8 -10 11 -10 2 0 4 5 4 10 0 6 -5 10 -11 10 -5 0
-7 -4 -4 -10z"/>
<path d="M18123 2235 c0 -27 2 -38 4 -22 2 15 2 37 0 50 -2 12 -4 0 -4 -28z"/>
<path d="M18150 2273 c5 -2 10 -15 10 -28 0 -13 -5 -26 -10 -28 -6 -3 -5 -4 2
-3 7 2 13 15 13 31 0 16 -6 29 -13 31 -7 1 -8 0 -2 -3z"/>
<path d="M18193 2245 c0 -22 2 -30 4 -17 2 12 2 30 0 40 -3 9 -5 -1 -4 -23z"/>
<path d="M18244 2266 c-10 -26 0 -51 21 -51 16 0 20 7 20 30 0 33 -30 49 -41
21z m36 -21 c0 -16 -6 -25 -15 -25 -9 0 -15 9 -15 25 0 16 6 25 15 25 9 0 15
-9 15 -25z"/>
<path d="M18311 2264 c0 -11 3 -14 6 -6 3 7 2 16 -1 19 -3 4 -6 -2 -5 -13z"/>
<path d="M18387 2273 c-11 -10 -8 -51 4 -59 6 -3 16 -1 22 5 9 9 8 11 -5 6
-10 -4 -18 -3 -18 3 0 6 10 13 23 15 l22 4 -22 2 c-13 0 -23 6 -23 12 0 6 7 8
16 5 8 -3 12 -2 9 4 -7 12 -19 13 -28 3z"/>
<path d="M18547 2273 c6 -4 13 -22 16 -38 4 -27 5 -27 3 4 0 21 -7 36 -16 38
-10 3 -11 2 -3 -4z"/>
<path d="M18593 2245 c0 -22 2 -30 4 -17 2 12 2 30 0 40 -3 9 -5 -1 -4 -23z"/>
<path d="M18630 2276 c0 -2 9 -6 20 -9 11 -3 18 -1 14 4 -5 9 -34 13 -34 5z"/>
<path d="M18720 2246 c0 -20 2 -36 4 -36 8 0 12 61 4 66 -4 3 -8 -11 -8 -30z"/>
<path d="M18758 2245 c2 -19 6 -35 8 -35 2 0 4 16 4 35 0 19 -4 35 -8 35 -4 0
-6 -16 -4 -35z"/>
<path d="M18787 2273 c6 -4 13 -22 16 -38 4 -27 5 -27 3 4 0 21 -7 36 -16 38
-10 3 -11 2 -3 -4z"/>
<path d="M18835 2270 c-4 -6 1 -7 11 -3 12 4 15 3 10 -5 -4 -7 -2 -12 3 -12 6
0 11 7 11 15 0 17 -25 20 -35 5z"/>
<path d="M18903 2235 c0 -27 2 -38 4 -22 2 15 2 37 0 50 -2 12 -4 0 -4 -28z"/>
<path d="M18930 2273 c5 -2 10 -15 10 -28 0 -13 -5 -26 -10 -28 -6 -3 -5 -4 2
-3 7 2 13 15 13 31 0 16 -6 29 -13 31 -7 1 -8 0 -2 -3z"/>
<path d="M17141 2254 c0 -11 3 -14 6 -6 3 7 2 16 -1 19 -3 4 -6 -2 -5 -13z"/>
<path d="M16701 2244 c0 -11 3 -14 6 -6 3 7 2 16 -1 19 -3 4 -6 -2 -5 -13z"/>
<path d="M16771 2244 c0 -11 3 -14 6 -6 3 7 2 16 -1 19 -3 4 -6 -2 -5 -13z"/>
<path d="M17211 2244 c0 -11 3 -14 6 -6 3 7 2 16 -1 19 -3 4 -6 -2 -5 -13z"/>
<path d="M17520 2245 c0 -8 9 -10 25 -7 14 2 25 6 25 7 0 1 -11 5 -25 7 -16 3
-25 1 -25 -7z"/>
<path d="M18332 2244 c-7 -8 -10 -19 -6 -26 5 -7 10 -3 16 12 10 28 7 33 -10
14z"/>
<path d="M18630 2254 c0 -4 8 -13 18 -21 16 -13 15 -14 -7 -9 -17 3 -21 2 -13
-6 12 -12 42 -4 42 11 0 6 -9 15 -20 21 -11 6 -20 8 -20 4z"/>
<path d="M17248 2243 c6 -2 18 -2 25 0 6 3 1 5 -13 5 -14 0 -19 -2 -12 -5z"/>
<path d="M17795 2240 c-8 -13 3 -30 18 -29 9 0 9 2 0 6 -18 7 -16 21 5 26 15
4 15 5 0 6 -9 0 -20 -3 -23 -9z"/>
<path d="M18831 2233 c-1 -18 4 -23 25 -23 14 0 23 4 19 10 -3 5 -12 7 -19 4
-8 -3 -16 2 -19 13 -4 14 -5 14 -6 -4z"/>
<path d="M16810 2216 c7 -7 13 -7 20 0 6 6 3 10 -10 10 -13 0 -16 -4 -10 -10z"/>
<path d="M16967 2218 c2 -5 13 -8 23 -8 10 0 21 3 23 8 3 4 -8 7 -23 7 -15 0
-26 -3 -23 -7z"/>
<path d="M17115 2220 c-16 -7 -17 -9 -3 -9 9 -1 20 4 23 9 7 11 7 11 -20 0z"/>
<path d="M17260 2220 c-9 -6 -10 -10 -3 -10 6 0 15 5 18 10 8 12 4 12 -15 0z"/>
<path d="M17377 2218 c2 -5 13 -8 23 -8 10 0 21 3 23 8 3 4 -8 7 -23 7 -15 0
-26 -3 -23 -7z"/>
<path d="M17550 2220 c-9 -6 -10 -10 -3 -10 6 0 15 5 18 10 8 12 4 12 -15 0z"/>
<path d="M17597 2218 c2 -5 10 -8 18 -8 8 0 16 3 18 8 3 4 -5 7 -18 7 -13 0
-21 -3 -18 -7z"/>
<path d="M17870 2216 c7 -7 13 -7 20 0 6 6 3 10 -10 10 -13 0 -16 -4 -10 -10z"/>
<path d="M16398 2213 c7 -3 16 -2 19 1 4 3 -2 6 -13 5 -11 0 -14 -3 -6 -6z"/>
<path d="M6990 1860 c0 -11 7 -20 15 -20 8 0 15 9 15 20 0 11 -7 20 -15 20 -8
0 -15 -9 -15 -20z"/>
<path d="M370 1860 c0 -11 5 -20 10 -20 6 0 10 9 10 20 0 11 -4 20 -10 20 -5
0 -10 -9 -10 -20z"/>
<path d="M408 1873 c7 -3 16 -2 19 1 4 3 -2 6 -13 5 -11 0 -14 -3 -6 -6z"/>
<path d="M1430 1885 c0 -8 7 -15 15 -15 8 0 15 7 15 15 0 8 -7 15 -15 15 -8 0
-15 -7 -15 -15z"/>
<path d="M4654 1886 c-9 -24 4 -48 23 -44 12 2 18 12 18 28 0 29 -32 41 -41
16z"/>
<path d="M7450 1890 c0 -5 7 -10 15 -10 8 0 15 5 15 10 0 6 -7 10 -15 10 -8 0
-15 -4 -15 -10z"/>
<path d="M7450 1855 c0 -8 7 -15 15 -15 8 0 15 7 15 15 0 8 -7 15 -15 15 -8 0
-15 -7 -15 -15z"/>
<path d="M908 1873 c7 -3 16 -2 19 1 4 3 -2 6 -13 5 -11 0 -14 -3 -6 -6z"/>
<path d="M1530 1860 c0 -11 7 -20 15 -20 8 0 15 9 15 20 0 11 -7 20 -15 20 -8
0 -15 -9 -15 -20z"/>
<path d="M1628 1873 c7 -3 16 -2 19 1 4 3 -2 6 -13 5 -11 0 -14 -3 -6 -6z"/>
<path d="M1790 1860 c0 -11 7 -20 15 -20 8 0 15 9 15 20 0 11 -7 20 -15 20 -8
0 -15 -9 -15 -20z"/>
<path d="M2368 1873 c7 -3 16 -2 19 1 4 3 -2 6 -13 5 -11 0 -14 -3 -6 -6z"/>
<path d="M2420 1850 c0 -5 7 -10 15 -10 8 0 15 5 15 10 0 6 -7 10 -15 10 -8 0
-15 -4 -15 -10z"/>
<path d="M2638 1873 c7 -3 16 -2 19 1 4 3 -2 6 -13 5 -11 0 -14 -3 -6 -6z"/>
<path d="M3200 1850 c0 -5 7 -10 15 -10 8 0 15 5 15 10 0 6 -7 10 -15 10 -8 0
-15 -4 -15 -10z"/>
<path d="M3308 1873 c7 -3 16 -2 19 1 4 3 -2 6 -13 5 -11 0 -14 -3 -6 -6z"/>
<path d="M3360 1860 c0 -11 7 -20 15 -20 8 0 15 9 15 20 0 11 -7 20 -15 20 -8
0 -15 -9 -15 -20z"/>
<path d="M3448 1873 c7 -3 16 -2 19 1 4 3 -2 6 -13 5 -11 0 -14 -3 -6 -6z"/>
<path d="M3988 1873 c7 -3 16 -2 19 1 4 3 -2 6 -13 5 -11 0 -14 -3 -6 -6z"/>
<path d="M4100 1850 c0 -5 7 -10 15 -10 8 0 15 5 15 10 0 6 -7 10 -15 10 -8 0
-15 -4 -15 -10z"/>
<path d="M4220 1860 c0 -11 7 -20 15 -20 8 0 15 9 15 20 0 11 -7 20 -15 20 -8
0 -15 -9 -15 -20z"/>
<path d="M4830 1860 c0 -11 7 -20 15 -20 8 0 15 9 15 20 0 11 -7 20 -15 20 -8
0 -15 -9 -15 -20z"/>
<path d="M5380 1860 c0 -11 7 -20 15 -20 8 0 15 9 15 20 0 11 -7 20 -15 20 -8
0 -15 -9 -15 -20z"/>
<path d="M5520 1860 c0 -11 7 -20 15 -20 8 0 15 9 15 20 0 11 -7 20 -15 20 -8
0 -15 -9 -15 -20z"/>
<path d="M5580 1850 c0 -5 7 -10 15 -10 8 0 15 5 15 10 0 6 -7 10 -15 10 -8 0
-15 -4 -15 -10z"/>
<path d="M5688 1873 c7 -3 16 -2 19 1 4 3 -2 6 -13 5 -11 0 -14 -3 -6 -6z"/>
<path d="M5920 1850 c0 -5 7 -10 15 -10 8 0 15 5 15 10 0 6 -7 10 -15 10 -8 0
-15 -4 -15 -10z"/>
<path d="M5980 1860 c0 -11 7 -20 15 -20 8 0 15 9 15 20 0 11 -7 20 -15 20 -8
0 -15 -9 -15 -20z"/>
<path d="M6430 1860 c0 -11 7 -20 15 -20 8 0 15 9 15 20 0 11 -7 20 -15 20 -8
0 -15 -9 -15 -20z"/>
<path d="M6570 1860 c0 -11 7 -20 15 -20 8 0 15 9 15 20 0 11 -7 20 -15 20 -8
0 -15 -9 -15 -20z"/>
<path d="M6630 1850 c0 -5 7 -10 15 -10 8 0 15 5 15 10 0 6 -7 10 -15 10 -8 0
-15 -4 -15 -10z"/>
<path d="M6738 1873 c7 -3 16 -2 19 1 4 3 -2 6 -13 5 -11 0 -14 -3 -6 -6z"/>
<path d="M6930 1850 c0 -5 7 -10 15 -10 8 0 15 5 15 10 0 6 -7 10 -15 10 -8 0
-15 -4 -15 -10z"/>
<path d="M7078 1873 c7 -3 16 -2 19 1 4 3 -2 6 -13 5 -11 0 -14 -3 -6 -6z"/>
<path d="M7518 1873 c7 -3 16 -2 19 1 4 3 -2 6 -13 5 -11 0 -14 -3 -6 -6z"/>
<path d="M7638 1873 c7 -3 16 -2 19 1 4 3 -2 6 -13 5 -11 0 -14 -3 -6 -6z"/>
<path d="M2280 1510 c0 -5 5 -10 10 -10 6 0 10 5 10 10 0 6 -4 10 -10 10 -5 0
-10 -4 -10 -10z"/>
<path d="M2690 1500 c0 -11 5 -20 10 -20 6 0 10 9 10 20 0 11 -4 20 -10 20 -5
0 -10 -9 -10 -20z"/>
<path d="M2900 1510 c0 -5 5 -10 10 -10 6 0 10 5 10 10 0 6 -4 10 -10 10 -5 0
-10 -4 -10 -10z"/>
<path d="M4450 1510 c0 -5 5 -10 10 -10 6 0 10 5 10 10 0 6 -4 10 -10 10 -5 0
-10 -4 -10 -10z"/>
<path d="M4860 1500 c0 -11 5 -20 10 -20 6 0 10 9 10 20 0 11 -4 20 -10 20 -5
0 -10 -9 -10 -20z"/>
<path d="M5070 1510 c0 -5 5 -10 10 -10 6 0 10 5 10 10 0 6 -4 10 -10 10 -5 0
-10 -4 -10 -10z"/>
<path d="M2347 1513 c-13 -12 -7 -33 8 -33 8 0 15 9 15 20 0 20 -11 26 -23 13z"/>
<path d="M2407 1513 c-13 -12 -7 -33 8 -33 8 0 15 9 15 20 0 20 -11 26 -23 13z"/>
<path d="M2508 1513 c7 -3 16 -2 19 1 4 3 -2 6 -13 5 -11 0 -14 -3 -6 -6z"/>
<path d="M2567 1513 c-13 -12 -7 -33 8 -33 8 0 15 9 15 20 0 20 -11 26 -23 13z"/>
<path d="M2620 1490 c0 -5 4 -10 9 -10 6 0 13 5 16 10 3 6 -1 10 -9 10 -9 0
-16 -4 -16 -10z"/>
<path d="M2745 1510 c-4 -6 -3 -16 3 -22 6 -6 12 -6 17 2 4 6 3 16 -3 22 -6 6
-12 6 -17 -2z"/>
<path d="M3008 1513 c7 -3 16 -2 19 1 4 3 -2 6 -13 5 -11 0 -14 -3 -6 -6z"/>
<path d="M3060 1490 c0 -5 4 -10 9 -10 6 0 13 5 16 10 3 6 -1 10 -9 10 -9 0
-16 -4 -16 -10z"/>
<path d="M4517 1513 c-13 -12 -7 -33 8 -33 8 0 15 9 15 20 0 20 -11 26 -23 13z"/>
<path d="M4577 1513 c-13 -12 -7 -33 8 -33 8 0 15 9 15 20 0 20 -11 26 -23 13z"/>
<path d="M4678 1513 c7 -3 16 -2 19 1 4 3 -2 6 -13 5 -11 0 -14 -3 -6 -6z"/>
<path d="M4737 1513 c-13 -12 -7 -33 8 -33 8 0 15 9 15 20 0 20 -11 26 -23 13z"/>
<path d="M4790 1490 c0 -5 4 -10 9 -10 6 0 13 5 16 10 3 6 -1 10 -9 10 -9 0
-16 -4 -16 -10z"/>
<path d="M4915 1510 c-4 -6 -3 -16 3 -22 6 -6 12 -6 17 2 4 6 3 16 -3 22 -6 6
-12 6 -17 -2z"/>
<path d="M5178 1513 c7 -3 16 -2 19 1 4 3 -2 6 -13 5 -11 0 -14 -3 -6 -6z"/>
<path d="M5230 1490 c0 -5 4 -10 9 -10 6 0 13 5 16 10 3 6 -1 10 -9 10 -9 0
-16 -4 -16 -10z"/>
<path d="M5490 1500 c0 -11 7 -20 15 -20 8 0 15 9 15 20 0 11 -7 20 -15 20 -8
0 -15 -9 -15 -20z"/>
<path d="M5558 1513 c7 -3 16 -2 19 1 4 3 -2 6 -13 5 -11 0 -14 -3 -6 -6z"/>
<path d="M240 955 l0 -375 460 0 460 0 0 375 0 375 -460 0 -460 0 0 -375z
m120 -300 c0 -40 -1 -40 -42 -19 l-31 16 29 19 c40 26 44 24 44 -16z m722 19
l31 -16 -29 -19 c-40 -26 -44 -24 -44 16 0 40 1 40 42 19z"/>
<path d="M1540 1125 l0 -255 1170 0 1170 0 0 255 0 255 -1170 0 -1170 0 0
-255z m358 163 c-1 -37 -2 -39 -5 -10 -2 17 -10 32 -16 32 -7 0 -6 4 3 10 8 5
16 10 18 10 1 0 1 -19 0 -42z m-259 -10 c-2 -32 -2 -32 -6 -5 -5 33 -25 31
-34 -4 -6 -21 -7 -21 -8 9 -1 28 2 32 24 32 22 0 25 -4 24 -32z m61 2 c0 -23
-4 -30 -20 -30 -24 0 -27 28 -3 37 15 6 15 7 -3 14 -17 7 -17 8 4 8 18 1 22
-4 22 -29z m89 -2 l-1 -33 -8 30 c-7 29 -9 28 -23 -15 -3 -8 -6 -2 -6 15 -1
31 -15 25 -24 -10 -3 -13 -5 -9 -6 13 -1 30 1 32 34 32 33 0 35 -2 34 -32z
m65 17 c4 -11 -1 -15 -17 -15 -21 -1 -22 -1 -3 -15 18 -13 18 -15 3 -15 -10 0
-20 7 -23 15 -8 21 2 45 20 45 7 0 16 -7 20 -15z m56 -154 c0 -10 -7 -25 -16
-32 -15 -12 -14 -14 7 -20 21 -6 20 -7 -8 -8 -24 -1 -31 3 -27 13 3 8 12 17
20 20 20 8 18 34 -3 39 -14 4 -12 5 5 6 15 1 22 -5 22 -18z m-271 -33 c-2 -32
-2 -32 -6 -5 -5 33 -25 31 -34 -4 -6 -21 -7 -21 -8 9 -1 28 2 32 24 32 22 0
25 -4 24 -32z m61 2 c0 -23 -4 -30 -20 -30 -24 0 -27 28 -3 37 15 6 15 7 -3
14 -17 7 -17 8 4 8 18 1 22 -4 22 -29z m89 -2 l-1 -33 -8 30 c-7 29 -9 28 -23
-15 -3 -8 -6 -2 -6 15 -1 31 -15 25 -24 -10 -3 -13 -5 -9 -6 13 -1 30 1 32 34
32 33 0 35 -2 34 -32z m65 17 c4 -11 -1 -15 -17 -15 -21 -1 -22 -1 -3 -15 18
-13 18 -15 3 -15 -10 0 -20 7 -23 15 -8 21 2 45 20 45 7 0 16 -7 20 -15z m53
-155 c-3 -11 -1 -22 4 -25 15 -10 -3 -35 -25 -34 -16 1 -17 2 -3 6 9 2 17 11
17 19 0 8 -8 15 -17 15 -17 1 -17 2 0 6 9 2 17 8 17 13 0 5 -8 11 -17 13 -13
3 -11 5 6 6 19 1 22 -3 18 -19z m-268 -32 c-2 -32 -2 -32 -6 -5 -5 33 -25 31
-34 -4 -6 -21 -7 -21 -8 9 -1 28 2 32 24 32 22 0 25 -4 24 -32z m61 2 c0 -23
-4 -30 -20 -30 -24 0 -27 28 -3 37 15 6 15 7 -3 14 -17 7 -17 8 4 8 18 1 22
-4 22 -29z m89 -2 l-1 -33 -8 30 c-7 29 -9 28 -23 -15 -3 -8 -6 -2 -6 15 -1
31 -15 25 -24 -10 -3 -13 -5 -9 -6 13 -1 30 1 32 34 32 33 0 35 -2 34 -32z
m65 17 c4 -11 -1 -15 -17 -15 -21 -1 -22 -1 -3 -15 18 -13 18 -15 3 -15 -10 0
-20 7 -23 15 -8 21 2 45 20 45 7 0 16 -7 20 -15z"/>
<path d="M1670 1270 c0 -5 5 -10 10 -10 6 0 10 5 10 10 0 6 -4 10 -10 10 -5 0
-10 -4 -10 -10z"/>
<path d="M1670 1100 c0 -5 5 -10 10 -10 6 0 10 5 10 10 0 6 -4 10 -10 10 -5 0
-10 -4 -10 -10z"/>
<path d="M1670 930 c0 -5 5 -10 10 -10 6 0 10 5 10 10 0 6 -4 10 -10 10 -5 0
-10 -4 -10 -10z"/>
<path d="M1540 460 l0 -240 1170 0 1170 0 0 240 0 240 -1170 0 -1170 0 0 -240z
m358 183 c-21 -5 -24 -23 -4 -23 8 0 16 -6 19 -12 7 -22 -4 -38 -27 -37 -16 1
-17 2 -3 6 21 5 23 33 2 33 -8 0 -15 9 -15 20 0 14 6 20 23 19 16 -1 18 -2 5
-6z m-259 -45 c-2 -32 -2 -32 -6 -5 -5 33 -25 31 -34 -4 -6 -21 -7 -21 -8 9
-1 28 2 32 24 32 22 0 25 -4 24 -32z m61 2 c0 -23 -4 -30 -20 -30 -24 0 -27
28 -3 37 15 6 15 7 -3 14 -17 7 -17 8 4 8 18 1 22 -4 22 -29z m89 -2 l-1 -33
-8 30 c-7 29 -9 28 -23 -15 -3 -8 -6 -2 -6 15 -1 31 -15 25 -24 -10 -3 -13 -5
-9 -6 13 -1 30 1 32 34 32 33 0 35 -2 34 -32z m65 17 c4 -11 -1 -15 -17 -15
-21 -1 -22 -1 -3 -15 18 -13 18 -15 3 -15 -10 0 -20 7 -23 15 -8 21 2 45 20
45 7 0 16 -7 20 -15z m41 -148 c-17 -13 -17 -14 4 -20 28 -7 25 -42 -4 -42
-13 0 -21 8 -23 23 -5 33 4 52 25 52 15 0 15 -1 -2 -13z m-256 -39 c-2 -32 -2
-32 -6 -5 -5 33 -25 31 -34 -4 -6 -21 -7 -21 -8 9 -1 28 2 32 24 32 22 0 25
-4 24 -32z m61 2 c0 -23 -4 -30 -20 -30 -24 0 -27 28 -3 37 15 6 15 7 -3 14
-17 7 -17 8 4 8 18 1 22 -4 22 -29z m89 -2 l-1 -33 -8 30 c-7 29 -9 28 -23
-15 -3 -8 -6 -2 -6 15 -1 31 -15 25 -24 -10 -3 -13 -5 -9 -6 13 -1 30 1 32 34
32 33 0 35 -2 34 -32z m65 17 c4 -11 -1 -15 -17 -15 -21 -1 -22 -1 -3 -15 18
-13 18 -15 3 -15 -10 0 -20 7 -23 15 -8 21 2 45 20 45 7 0 16 -7 20 -15z"/>
<path d="M1670 590 c0 -5 5 -10 10 -10 6 0 10 5 10 10 0 6 -4 10 -10 10 -5 0
-10 -4 -10 -10z"/>
<path d="M1880 425 c0 -9 5 -15 11 -13 6 2 11 8 11 13 0 5 -5 11 -11 13 -6 2
-11 -4 -11 -13z"/>
<path d="M1670 420 c0 -5 5 -10 10 -10 6 0 10 5 10 10 0 6 -4 10 -10 10 -5 0
-10 -4 -10 -10z"/>
<path d="M4277 1273 c-13 -12 -7 -33 8 -33 8 0 15 9 15 20 0 20 -11 26 -23 13z"/>
<path d="M4337 1273 c-13 -12 -7 -33 8 -33 8 0 15 9 15 20 0 20 -11 26 -23 13z"/>
<path d="M4210 1250 c0 -5 4 -10 9 -10 6 0 13 5 16 10 3 6 -1 10 -9 10 -9 0
-16 -4 -16 -10z"/>
<path d="M4770 909 c0 -24 23 -21 28 4 2 10 -3 17 -12 17 -10 0 -16 -9 -16
-21z"/>
<path d="M4950 920 c0 -5 5 -10 10 -10 6 0 10 5 10 10 0 6 -4 10 -10 10 -5 0
-10 -4 -10 -10z"/>
<path d="M4460 910 c0 -13 5 -20 13 -17 6 2 12 10 12 17 0 7 -6 15 -12 18 -8
2 -13 -5 -13 -18z"/>
<path d="M4710 910 c0 -13 5 -20 13 -17 6 2 12 10 12 17 0 7 -6 15 -12 18 -8
2 -13 -5 -13 -18z"/>
<path d="M4838 923 c7 -3 16 -2 19 1 4 3 -2 6 -13 5 -11 0 -14 -3 -6 -6z"/>
<path d="M5058 923 c7 -3 16 -2 19 1 4 3 -2 6 -13 5 -11 0 -14 -3 -6 -6z"/>
<path d="M5110 900 c0 -5 4 -10 9 -10 6 0 13 5 16 10 3 6 -1 10 -9 10 -9 0
-16 -4 -16 -10z"/>
<path d="M4640 680 c0 -5 5 -10 10 -10 6 0 10 5 10 10 0 6 -4 10 -10 10 -5 0
-10 -4 -10 -10z"/>
<path d="M5050 670 c0 -11 5 -20 10 -20 6 0 10 9 10 20 0 11 -4 20 -10 20 -5
0 -10 -9 -10 -20z"/>
<path d="M5260 680 c0 -5 5 -10 10 -10 6 0 10 5 10 10 0 6 -4 10 -10 10 -5 0
-10 -4 -10 -10z"/>
<path d="M4460 670 c0 -13 5 -20 13 -17 6 2 12 10 12 17 0 7 -6 15 -12 18 -8
2 -13 -5 -13 -18z"/>
<path d="M4700 670 c0 -11 7 -20 15 -20 8 0 15 9 15 20 0 11 -7 20 -15 20 -8
0 -15 -9 -15 -20z"/>
<path d="M4760 670 c0 -11 7 -20 15 -20 8 0 15 9 15 20 0 11 -7 20 -15 20 -8
0 -15 -9 -15 -20z"/>
<path d="M4868 683 c7 -3 16 -2 19 1 4 3 -2 6 -13 5 -11 0 -14 -3 -6 -6z"/>
<path d="M4920 670 c0 -11 7 -20 15 -20 8 0 15 9 15 20 0 11 -7 20 -15 20 -8
0 -15 -9 -15 -20z"/>
<path d="M4980 660 c0 -5 4 -10 9 -10 6 0 13 5 16 10 3 6 -1 10 -9 10 -9 0
-16 -4 -16 -10z"/>
<path d="M5100 670 c0 -13 5 -20 13 -17 6 2 12 10 12 17 0 7 -6 15 -12 18 -8
2 -13 -5 -13 -18z"/>
<path d="M5368 683 c7 -3 16 -2 19 1 4 3 -2 6 -13 5 -11 0 -14 -3 -6 -6z"/>
<path d="M5420 660 c0 -5 4 -10 9 -10 6 0 13 5 16 10 3 6 -1 10 -9 10 -9 0
-16 -4 -16 -10z"/>
<path d="M4140 460 l0 -60 60 0 60 0 0 60 0 60 -60 0 -60 0 0 -60z"/>
<path d="M4520 440 c0 -11 5 -20 10 -20 6 0 10 9 10 20 0 11 -4 20 -10 20 -5
0 -10 -9 -10 -20z"/>
<path d="M4550 440 c0 -13 5 -20 13 -17 6 2 12 10 12 17 0 7 -6 15 -12 18 -8
2 -13 -5 -13 -18z"/>
<path d="M4640 430 c0 -5 4 -10 9 -10 6 0 13 5 16 10 3 6 -1 10 -9 10 -9 0
-16 -4 -16 -10z"/>
<path d="M4748 453 c7 -3 16 -2 19 1 4 3 -2 6 -13 5 -11 0 -14 -3 -6 -6z"/>
<path d="M4800 430 c0 -5 4 -10 9 -10 6 0 13 5 16 10 3 6 -1 10 -9 10 -9 0
-16 -4 -16 -10z"/>
<path d="M650 320 c0 -11 5 -20 10 -20 6 0 10 9 10 20 0 11 -4 20 -10 20 -5 0
-10 -9 -10 -20z"/>
<path d="M685 330 c-4 -6 -3 -16 3 -22 6 -6 12 -6 17 2 4 6 3 16 -3 22 -6 6
-12 6 -17 -2z"/>
<path d="M860 320 c0 -11 5 -20 10 -20 6 0 10 9 10 20 0 11 -4 20 -10 20 -5 0
-10 -9 -10 -20z"/>
<path d="M898 333 c7 -3 16 -2 19 1 4 3 -2 6 -13 5 -11 0 -14 -3 -6 -6z"/>
</g>
</svg>
